<svg width="25" height="21" viewBox="0 0 25 21" fill="none" xmlns="http://www.w3.org/2000/svg">
<path fill-rule="evenodd" clip-rule="evenodd" d="M6.23536 4.56293C2.81041 7.07083 0.0045412 9.13357 7.95264e-05 9.14682C-0.00435477 9.16008 0.292689 9.58702 0.660216 10.0956L1.32845 11.0202L6.90221 6.94122L12.476 2.8622L12.5651 2.92559C12.614 2.96045 15.1246 4.78839 18.144 6.98771C21.1635 9.18703 23.6454 10.9936 23.6596 11.0024C23.6824 11.0167 24.9637 9.26588 24.9999 9.17102C25.0099 9.14489 24.4391 8.71365 23.207 7.81635L21.3996 6.5V3.25001V0H19.8532H18.3068L18.2998 2.11871L18.2928 4.23742L15.3855 2.11871C13.7865 0.953405 12.4747 0.000716724 12.4704 0.00157105C12.4661 0.00242539 9.66031 2.05505 6.23536 4.56293ZM8.01456 7.60137L3.56657 10.8456L3.55965 15.9228L3.55275 21H6.76904H9.98536V17.6378V14.2756H12.4762H14.9671V17.6378V21H18.1833H21.3996V15.9294V10.8587L21.1464 10.6711C20.5611 10.2373 12.4809 4.35444 12.4722 4.35574C12.4669 4.35651 10.461 5.81703 8.01456 7.60137Z" fill="white"/>
</svg>
